<svg width="10.000000" height="22.000000" viewBox="0 0 10 22" fill="none" xmlns="http://www.w3.org/2000/svg" xmlns:xlink="http://www.w3.org/1999/xlink">
	<desc>
			Created with Pixso.
	</desc>
	<defs/>
	<path id="Vector" d="M6.64 7.21L6.64 5.3C6.64 5.01 6.66 4.79 6.68 4.64C6.7 4.48 6.76 4.34 6.86 4.19C6.96 4.05 7.1 3.95 7.3 3.89C7.5 3.83 7.78 3.81 8.12 3.81L9.98 3.81L9.98 0L7 0C5.28 0 4.07 0.4 3.33 1.24C2.59 2.08 2.21 3.29 2.21 4.93L2.21 7.21L0 7.21L0 11L2.21 11L2.21 22L6.64 22L6.64 11L9.6 11L10 7.21L6.64 7.21Z" fill="#000000" fill-opacity="1.000000" fill-rule="nonzero"/>
</svg>
