<svg width="22.000000" height="22.000000" viewBox="0 0 22 22" fill="none" xmlns="http://www.w3.org/2000/svg" xmlns:xlink="http://www.w3.org/1999/xlink">
	<desc>
			Created with Pixso.
	</desc>
	<defs/>
	<path id="Vector" d="M15.93 0L6.06 0C2.71 0 0 2.71 0 6.06L0 15.93C0 19.28 2.71 22 6.06 22L15.93 22C19.28 22 22 19.28 22 15.93L22 6.06C22 2.71 19.28 0 15.93 0ZM20.04 15.93C20.04 18.2 18.19 20.04 15.93 20.04L6.06 20.04C3.79 20.04 1.95 18.19 1.95 15.93L1.95 6.06C1.95 3.8 3.8 1.95 6.06 1.95L15.93 1.95C18.2 1.95 20.04 3.8 20.04 6.06L20.04 15.93Z" fill="#000000" fill-opacity="1.000000" fill-rule="nonzero"/>
	<path id="Vector" d="M11 5.33C7.87 5.33 5.32 7.87 5.32 11C5.32 14.12 7.85 16.67 11 16.67C14.12 16.67 16.67 14.14 16.67 11C16.67 7.87 14.12 5.33 11 5.33ZM11 14.72C8.94 14.72 7.27 13.06 7.27 11.01C7.28 8.94 8.94 7.29 11 7.29C13.05 7.29 14.72 8.94 14.72 11C14.72 13.05 13.05 14.72 11 14.72Z" fill="#000000" fill-opacity="1.000000" fill-rule="nonzero"/>
	<path id="Vector" d="M16.9 3.67C16.53 3.67 16.15 3.82 15.89 4.1C15.63 4.36 15.47 4.73 15.47 5.1C15.47 5.48 15.62 5.85 15.89 6.11C16.15 6.37 16.53 6.54 16.9 6.54C17.28 6.54 17.65 6.39 17.91 6.11C18.17 5.85 18.33 5.48 18.33 5.1C18.33 4.73 18.19 4.36 17.91 4.1C17.65 3.82 17.29 3.67 16.9 3.67Z" fill="#000000" fill-opacity="1.000000" fill-rule="nonzero"/>
</svg>
