<svg width="23.000000" height="22.000000" viewBox="0 0 23 22" fill="none" xmlns="http://www.w3.org/2000/svg" xmlns:xlink="http://www.w3.org/1999/xlink">
	<desc>
			Created with Pixso.
	</desc>
	<defs/>
	<path id="Vector" d="M0.27 7.14L5.21 7.14L5.21 22L0.27 22L0.27 7.14Z" fill="#000000" fill-opacity="1.000000" fill-rule="evenodd"/>
	<path id="Vector" d="M21.43 8.5C20.4 7.37 19.02 6.8 17.32 6.8C16.7 6.8 16.12 6.87 15.6 7.03C15.09 7.19 14.65 7.4 14.29 7.67C13.94 7.95 13.64 8.2 13.44 8.45C13.23 8.68 13.05 8.94 12.86 9.24L12.86 7.12L7.95 7.12L7.97 7.83C7.97 8.32 7.99 9.79 7.99 12.27C7.99 14.75 7.99 17.97 7.97 21.97L12.89 21.97L12.89 13.7C12.89 13.19 12.93 12.78 13.05 12.48C13.25 11.97 13.57 11.54 13.99 11.19C14.4 10.85 14.93 10.68 15.57 10.68C16.42 10.68 17.07 10.98 17.46 11.58C17.87 12.18 18.06 13.01 18.06 14.04L18.06 21.97L22.97 21.97L22.97 13.47C23 11.28 22.49 9.63 21.43 8.5Z" fill="#000000" fill-opacity="1.000000" fill-rule="nonzero"/>
	<path id="Vector" d="M2.78 0C1.95 0 1.28 0.25 0.78 0.73C0.25 1.21 0 1.81 0 2.55C0 3.28 0.25 3.88 0.75 4.39C1.26 4.87 1.9 5.12 2.73 5.12L2.75 5.12C3.6 5.12 4.27 4.87 4.77 4.39C5.28 3.9 5.53 3.28 5.53 2.55C5.53 1.81 5.26 1.19 4.77 0.71C4.27 0.25 3.6 0 2.78 0Z" fill="#000000" fill-opacity="1.000000" fill-rule="nonzero"/>
</svg>
