<svg width="25.000000" height="20.000000" viewBox="0 0 25 20" fill="none" xmlns="http://www.w3.org/2000/svg" xmlns:xlink="http://www.w3.org/1999/xlink">
	<desc>
			Created with Pixso.
	</desc>
	<defs/>
	<path id="Vector" d="M24.99 2.37C24.02 2.78 23.02 3.04 22.05 3.16C23.17 2.51 23.9 1.58 24.31 0.38C23.29 0.95 22.19 1.36 21.05 1.58C20.03 0.52 18.79 0 17.3 0C15.89 0 14.67 0.5 13.67 1.48C12.68 2.46 12.17 3.66 12.17 5.06C12.17 5.44 12.21 5.82 12.29 6.21C10.19 6.11 8.22 5.58 6.4 4.65C4.57 3.71 3.01 2.46 1.72 0.93C1.26 1.72 1.02 2.56 1.02 3.47C1.02 4.34 1.21 5.15 1.62 5.87C2.04 6.61 2.6 7.21 3.28 7.67C2.45 7.64 1.67 7.43 0.97 7.02L0.97 7.09C0.97 8.32 1.36 9.37 2.14 10.31C2.92 11.22 3.89 11.82 5.08 12.06C4.64 12.18 4.18 12.23 3.74 12.23C3.45 12.23 3.13 12.2 2.77 12.15C3.09 13.16 3.69 14 4.57 14.65C5.45 15.29 6.44 15.63 7.56 15.65C5.71 17.09 3.57 17.81 1.21 17.81C0.75 17.81 0.33 17.79 -0.03 17.74C2.36 19.25 4.98 20 7.83 20C9.66 20 11.36 19.71 12.97 19.16C14.58 18.58 15.94 17.84 17.06 16.88C18.18 15.92 19.18 14.82 19.98 13.59C20.81 12.35 21.42 11.05 21.81 9.71C22.19 8.36 22.41 7 22.41 5.65C22.41 5.37 22.41 5.15 22.39 5.01C23.44 4.26 24.29 3.4 24.99 2.37Z" fill="#000000" fill-opacity="1.000000" fill-rule="nonzero"/>
</svg>
