<svg width="29.000000" height="20.000000" viewBox="0 0 29 20" fill="none" xmlns="http://www.w3.org/2000/svg" xmlns:xlink="http://www.w3.org/1999/xlink">
	<desc>
			Created with Pixso.
	</desc>
	<defs/>
	<path id="Vector" d="M27.98 7.64C27.98 7.09 27.93 6.37 27.84 5.51C27.76 4.65 27.64 3.88 27.5 3.21C27.33 2.44 26.97 1.82 26.42 1.29C25.87 0.76 25.22 0.47 24.48 0.38C22.18 0.11 18.68 0 14 0C9.32 0 5.82 0.11 3.52 0.38C2.78 0.47 2.13 0.76 1.58 1.29C1.03 1.82 0.67 2.44 0.5 3.21C0.33 3.88 0.23 4.65 0.14 5.51C0.07 6.37 0.02 7.09 0 7.64C0 8.22 0 8.99 0 10C0 11 0 11.77 0.02 12.35C0.02 12.9 0.07 13.62 0.16 14.48C0.21 15.34 0.33 16.11 0.47 16.78C0.64 17.55 1 18.17 1.55 18.7C2.11 19.23 2.75 19.52 3.5 19.61C5.8 19.88 9.3 20 13.98 20C18.65 20 22.15 19.88 24.46 19.61C25.2 19.54 25.85 19.23 26.4 18.7C26.95 18.17 27.31 17.55 27.48 16.78C27.64 16.11 27.74 15.34 27.84 14.48C27.91 13.62 27.96 12.9 27.98 12.35C27.98 11.79 28 11 28 10C28 8.99 28 8.22 27.98 7.64ZM19.54 10.83L11.53 15.85C11.39 15.94 11.22 16.01 11 16.01C10.83 16.01 10.69 15.97 10.52 15.89C10.19 15.7 10 15.41 10 15.01L10 5.01C10 4.6 10.16 4.31 10.52 4.12C10.88 3.93 11.22 3.95 11.53 4.14L15.53 6.65L19.54 9.16C19.85 9.32 20.02 9.61 20.02 10C20 10.38 19.85 10.67 19.54 10.83Z" fill="#000000" fill-opacity="1.000000" fill-rule="nonzero"/>
</svg>
